<?xml version="1.0" encoding="iso-8859-1"?>
<!-- Uploaded to: SVG Repo, www.svgrepo.com, Generator: SVG Repo Mixer Tools -->
<svg fill="#000000" height="800px" width="800px" version="1.1" id="Layer_1" xmlns="http://www.w3.org/2000/svg" xmlns:xlink="http://www.w3.org/1999/xlink" 
	 viewBox="0 0 512 512" xml:space="preserve">
<g>
	<g>
		<path d="M265.532,182.712c1.065-5.26,1.598-10.527,1.598-15.755c0-27.342-13.119-52.217-34.99-67.723
			c1.065-5.26,1.598-10.527,1.598-15.755C233.739,37.446,196.293,0,150.261,0c-46.032,0-83.478,37.446-83.478,83.478
			c0,5.228,0.533,10.495,1.598,15.755c-21.87,15.506-34.99,40.381-34.99,67.723c0,5.228,0.533,10.495,1.598,15.755
			C13.119,198.217,0,223.093,0,250.435c0,46.032,37.446,83.478,83.478,83.478h133.565c46.032,0,83.478-37.446,83.478-83.478
			C300.522,223.093,287.402,198.217,265.532,182.712z"/>
	</g>
</g>
<g>
	<g>
		<path d="M477.01,182.712c1.065-5.26,1.598-10.527,1.598-15.755c0-27.342-13.119-52.217-34.99-67.723
			c1.065-5.26,1.598-10.527,1.598-15.755C445.217,37.446,407.771,0,361.739,0c-46.032,0-83.478,37.446-83.478,83.478
			c0,5.228,0.533,10.495,1.598,15.755c-0.275,0.195-0.509,0.429-0.78,0.626c14.796,20.97,21.845,45.372,21.432,68.956
			c21.185,21.576,33.402,50.869,33.402,81.62c0,32.689-13.527,62.247-35.233,83.478h129.842c46.032,0,83.478-37.446,83.478-83.478
			C512,223.093,498.881,198.217,477.01,182.712z"/>
	</g>
</g>
<g>
	<g>
		<path d="M495.304,411.826h-83.478v-44.522H311.652v44.522H200.348v-44.522H100.174v44.522H16.696
			C7.479,411.826,0,419.299,0,428.522c0,9.223,7.479,16.696,16.696,16.696c193.832,0,212.945,0,478.609,0
			c9.217,0,16.696-7.473,16.696-16.696C512,419.299,504.521,411.826,495.304,411.826z"/>
	</g>
</g>
<g>
	<g>
		<path d="M317.217,478.609H194.783c-9.217,0-16.696,7.473-16.696,16.696c0,9.223,7.479,16.696,16.696,16.696h122.435
			c9.217,0,16.696-7.473,16.696-16.696C333.913,486.082,326.435,478.609,317.217,478.609z"/>
	</g>
</g>
<g>
	<g>
		<path d="M128,478.609H16.696C7.479,478.609,0,486.082,0,495.304C0,504.527,7.479,512,16.696,512H128
			c9.217,0,16.696-7.473,16.696-16.696C144.696,486.082,137.217,478.609,128,478.609z"/>
	</g>
</g>
<g>
	<g>
		<path d="M495.304,478.609H384c-9.217,0-16.696,7.473-16.696,16.696c0,9.223,7.479,16.696,16.696,16.696h111.304
			c9.217,0,16.696-7.473,16.696-16.696C512,486.082,504.521,478.609,495.304,478.609z"/>
	</g>
</g>
</svg>